# Blender v2.78 (sub 0) OBJ File: 'ZeldaKey.stl'
# www.blender.org
mtllib ZeldaKey.mtl
o ZeldaKey
v -7.808110 -63.429996 -2.173508
v 42.191898 -63.429996 48.186489
v 92.191902 -63.429996 -2.173508
v 42.191898 -63.429996 -52.534004
v -7.808110 -59.079998 -2.173508
v 42.191898 -59.079998 48.186489
v -3.816760 -59.079998 -2.173508
v 42.191898 -59.079998 44.166389
v 42.191898 -60.139996 44.166389
v -3.816760 -60.139996 -2.173508
v 88.200500 -59.079998 -2.173508
v 88.200500 -60.139996 -2.173508
v 44.187599 -59.079998 46.176392
v 44.201900 -59.079998 46.190887
v 92.191902 -59.079998 -2.173508
v 42.191898 -59.079998 -52.534004
v 42.191898 -59.079998 -48.513000
v 42.191898 -60.139996 -48.513000
v 65.419403 -60.139996 -11.683502
v 42.682201 -60.139996 -3.201508
v 42.020000 -60.139996 -6.175201
v 40.610802 -60.139996 -8.876106
v 38.550499 -60.139996 -11.120300
v 35.979599 -60.139996 -12.754807
v 33.073299 -60.139996 -13.668106
v 30.029600 -60.139996 -13.798203
v 27.055901 -60.139996 -13.136002
v 24.355000 -60.139996 -11.726807
v 22.110800 -60.139996 -9.666504
v 20.476299 -60.139996 -7.095604
v 19.563000 -60.139996 -4.189209
v 19.476801 -60.139996 -2.173508
v 19.432899 -60.139996 -1.145508
v 19.476801 -62.469997 -2.173508
v 19.432899 -62.469997 -1.145508
v 19.563000 -62.469997 -4.189209
v 20.476299 -62.469997 -7.095604
v 22.110800 -62.469997 -9.666504
v 24.355000 -62.469997 -11.726807
v 27.055901 -62.469997 -13.136002
v 30.029600 -62.469997 -13.798203
v 33.073299 -62.469997 -13.668106
v 35.979599 -62.469997 -12.754807
v 38.550499 -62.469997 -11.120300
v 40.610802 -62.469997 -8.876106
v 42.020000 -62.469997 -6.175201
v 42.682201 -62.469997 -3.201508
v 65.419403 -62.469997 -11.683502
v 65.419403 -60.139996 9.026493
v 65.419403 -62.469997 9.026493
v 42.552200 -60.139996 -0.157806
v 41.638802 -60.139996 2.748493
v 40.004299 -60.139996 5.319393
v 37.760201 -60.139996 7.379692
v 35.059200 -60.139996 8.788891
v 32.085602 -60.139996 9.451092
v 29.041901 -60.139996 9.321091
v 26.135500 -60.139996 8.407692
v 23.564600 -60.139996 6.773193
v 21.504299 -60.139996 4.529091
v 20.095100 -60.139996 1.828091
v 20.095100 -62.469997 1.828091
v 42.552200 -62.469997 -0.157806
v 41.638802 -62.469997 2.748493
v 40.004299 -62.469997 5.319393
v 37.760201 -62.469997 7.379692
v 35.059200 -62.469997 8.788891
v 32.085602 -62.469997 9.451092
v 29.041901 -62.469997 9.321091
v 26.135500 -62.469997 8.407692
v 23.564600 -62.469997 6.773193
v 21.504299 -62.469997 4.529091
vn 0.0000 1.0000 -0.0000
vn 0.7096 0.0000 -0.7046
vn 0.0000 -1.0000 0.0000
vn -0.7096 0.0000 0.7046
vn 0.7096 0.0000 0.7046
vn -0.7096 -0.0000 -0.7046
vn -0.9991 0.0000 -0.0427
vn -0.9540 0.0000 -0.2998
vn -0.8439 0.0000 -0.5365
vn -0.6763 0.0000 -0.7366
vn -0.4626 0.0000 -0.8866
vn -0.2174 0.0000 -0.9761
vn 0.0427 0.0000 -0.9991
vn 0.2998 0.0000 -0.9540
vn 0.5365 0.0000 -0.8439
vn 0.7366 0.0000 -0.6763
vn 0.8866 0.0000 -0.4626
vn 0.9761 0.0000 -0.2174
vn -0.3495 0.0000 -0.9369
vn 1.0000 0.0000 0.0000
vn -0.9761 0.0000 0.2174
vn -0.3727 0.0000 0.9280
vn 0.9540 0.0000 0.2998
vn 0.8439 0.0000 0.5365
vn 0.6763 0.0000 0.7366
vn 0.4626 0.0000 0.8866
vn 0.2174 0.0000 0.9761
vn -0.0427 0.0000 0.9991
vn -0.2998 0.0000 0.9540
vn -0.5365 0.0000 0.8439
vn -0.7366 0.0000 0.6763
vn -0.8866 0.0000 0.4626
vn 0.0000 1.0000 0.0003
usemtl None
s off
f 1//1 2//1 3//1
f 3//1 4//1 1//1
f 5//2 6//2 2//2
f 2//2 1//2 5//2
f 7//3 6//3 5//3
f 6//3 7//3 8//3
f 9//4 8//4 7//4
f 7//4 10//4 9//4
f 11//5 8//5 9//5
f 9//5 12//5 11//5
f 13//3 8//3 11//3
f 6//3 8//3 13//3
f 13//6 15//6 2//6
f 6//6 13//6 2//6
f 3//6 2//6 15//6
f 13//3 11//3 15//3
f 11//3 16//3 15//3
f 17//3 16//3 11//3
f 7//3 16//3 17//3
f 16//3 7//3 5//3
f 16//5 5//5 1//5
f 1//5 4//5 16//5
f 15//4 16//4 4//4
f 4//4 3//4 15//4
f 10//6 7//6 17//6
f 17//6 18//6 10//6
f 18//2 17//2 11//2
f 11//2 12//2 18//2
f 19//3 18//3 12//3
f 20//3 18//3 19//3
f 21//3 18//3 20//3
f 22//3 18//3 21//3
f 23//3 18//3 22//3
f 24//3 18//3 23//3
f 25//3 18//3 24//3
f 26//3 18//3 25//3
f 27//3 18//3 26//3
f 28//3 18//3 27//3
f 29//3 18//3 28//3
f 30//3 18//3 29//3
f 30//3 10//3 18//3
f 31//3 10//3 30//3
f 32//3 10//3 31//3
f 10//3 32//3 33//3
f 33//7 32//7 34//7
f 34//7 35//7 33//7
f 32//7 31//7 36//7
f 36//7 34//7 32//7
f 31//8 30//8 37//8
f 37//8 36//8 31//8
f 30//9 29//9 38//9
f 38//9 37//9 30//9
f 29//10 28//10 39//10
f 39//10 38//10 29//10
f 28//11 27//11 40//11
f 40//11 39//11 28//11
f 27//12 26//12 41//12
f 41//12 40//12 27//12
f 26//13 25//13 42//13
f 42//13 41//13 26//13
f 25//14 24//14 43//14
f 43//14 42//14 25//14
f 24//15 23//15 44//15
f 44//15 43//15 24//15
f 23//16 22//16 45//16
f 45//16 44//16 23//16
f 22//17 21//17 46//17
f 46//17 45//17 22//17
f 21//18 20//18 47//18
f 47//18 46//18 21//18
f 20//19 19//19 48//19
f 48//19 47//19 20//19
f 19//20 49//20 50//20
f 50//20 48//20 19//20
f 19//3 12//3 49//3
f 9//3 49//3 12//3
f 9//3 51//3 49//3
f 9//3 52//3 51//3
f 9//3 53//3 52//3
f 9//3 54//3 53//3
f 9//3 55//3 54//3
f 9//3 56//3 55//3
f 9//3 57//3 56//3
f 9//3 58//3 57//3
f 9//3 59//3 58//3
f 9//3 60//3 59//3
f 10//3 60//3 9//3
f 60//3 10//3 61//3
f 61//3 10//3 33//3
f 61//21 33//21 35//21
f 35//21 62//21 61//21
f 49//22 51//22 63//22
f 63//22 50//22 49//22
f 51//23 52//23 64//23
f 64//23 63//23 51//23
f 52//24 53//24 65//24
f 65//24 64//24 52//24
f 53//25 54//25 66//25
f 66//25 65//25 53//25
f 54//26 55//26 67//26
f 67//26 66//26 54//26
f 55//27 56//27 68//27
f 68//27 67//27 55//27
f 56//28 57//28 69//28
f 69//28 68//28 56//28
f 57//29 58//29 70//29
f 70//29 69//29 57//29
f 58//30 59//30 71//30
f 71//30 70//30 58//30
f 59//31 60//31 72//31
f 72//31 71//31 59//31
f 60//32 61//32 62//32
f 62//32 72//32 60//32
f 14//33 13//33 6//33
f 45//3 46//3 47//3
f 48//3 50//3 63//3
f 47//3 48//3 63//3
f 47//3 63//3 64//3
f 47//3 64//3 65//3
f 45//3 47//3 65//3
f 45//3 65//3 66//3
f 45//3 66//3 67//3
f 67//3 68//3 69//3
f 45//3 67//3 69//3
f 69//3 70//3 71//3
f 45//3 69//3 71//3
f 44//3 45//3 71//3
f 43//3 44//3 71//3
f 42//3 43//3 71//3
f 41//3 42//3 71//3
f 40//3 41//3 71//3
f 39//3 40//3 71//3
f 39//3 71//3 72//3
f 38//3 39//3 72//3
f 37//3 38//3 72//3
f 36//3 37//3 72//3
f 34//3 36//3 72//3
f 34//3 72//3 35//3
f 72//3 62//3 35//3
